Patient4_TMGait_0pt6_01_right_32_EMG.mot
version=1
nRows=23
nColumns=33
inDegrees=no
endheader
time	1LAddLong	2LGlutMax	3LGlutMed	4LIliopsoas	5LSemiMemb	6LBicFemLong	7LRecFem	8LVastMed	9LVastLat	10LGasMed	11LTibAnt	12lTibPost	13LPeroneusLong	14LSol	15LExtDigLong	16LFlexDigLong	17RAddLong	18RGlutMax	19RGlutMed	20RIliopsoas	21RSemiMemb	22RBicFemLong	23RRecFem	24RVastMed	25RVastLat	26RGasMed	27RTibAnt	28RTibPost	29RPeroneusLong	30RSol	31RExtDigLong	32RFlexDigLong
38.72	0.014191	-0.21088	0.038757	-0.011597	-0.000916	-0.007324	0.11917	-0.005493	0.1265	-0.027313	0.033264	0.019379	0.027008	0.044098	0.002899	0.021973	-0.064697	-0.66696	0.090485	0.071106	0.14099	-0.6337	0.21255	0.063324	-0.16968	-0.020142	0.078278	-0.012512	0.53146	-0.085144	-0.000763	0.006104
38.721	0.002594	-0.23956	0.033264	-0.007324	0.006714	-0.010223	0.11124	0.00061	0.11566	-0.052032	0.014343	0.010376	0.10452	0.063019	-0.83038	0.024414	-0.012512	-0.72693	-0.27939	-0.025177	-0.21286	-0.48981	0.29846	0.041962	-0.16769	0.000763	0.099792	-0.012054	1.7587	-0.067596	-0.002136	-0.004425
38.722	0.004578	-0.24612	-0.003967	0.00824	-0.001678	-0.002899	-0.018768	-0.001678	0.10895	-0.024414	-0.22217	0.013733	0.12024	0.04715	0.083923	0.009766	0.021362	-0.85419	-0.55847	-0.024567	-0.33478	-0.48126	0.29205	0.060272	-0.13397	-0.015564	-0.029907	-0.021515	1.9458	-0.081177	-0.004578	-0.003052
38.723	-0.002899	-0.21851	-0.015869	-0.003815	0.005188	-0.014343	-0.11597	0.011292	0.093689	0.032043	-0.3447	0.011749	0.011597	0.010223	-0.11353	0.006409	0.047913	-1.1559	-0.22736	-0.049286	-0.12573	-0.50125	0.30838	-0.12207	0.008545	0.051575	-0.29862	-0.04837	0.85754	-0.29831	-0.002289	-0.003052
38.724	-0.007019	-0.16556	-0.03006	0.009155	0.008698	-0.023956	-0.18051	0.021667	0.079803	0.057678	-0.21957	0.011139	-0.10971	-0.031128	-0.52643	0.015259	0.038147	-1.3484	-0.14145	0.004425	0.37567	-0.35812	0.28763	-0.19058	0.36316	0.094452	-0.20355	0.0383	-1.1098	-0.45517	-0.006104	0.001678
38.725	-0.001526	-0.16708	-0.045013	0.009766	0.006409	-0.024109	-0.20126	0.014496	0.079041	0.065002	0.016785	0.005951	-0.09491	-0.029449	-0.63294	0.005951	-0.032349	-1.4566	-0.44311	0.12009	0.52704	0.056	0.28244	-0.1326	0.56244	0.042267	0.1297	0.042877	-1.7592	-0.25391	-0.001373	-0.012817
38.726	-0.004578	-0.1152	-0.053558	0.001068	0.010681	-0.024872	-0.21088	0.015564	0.076294	0.039368	0.20355	0.002594	-0.031586	0.012817	-0.40543	0.015564	-0.097046	-1.3844	0.12528	0.09491	0.15198	0.10025	0.1622	0.002899	0.82977	-0.016022	0.23865	-0.007782	-1.9113	0.15579	-0.006104	-0.015564
38.727	-0.003204	-0.088959	-0.081024	0.001526	0.00946	-0.012817	-0.070343	0.026398	0.079498	0.058899	0.19882	0.00351	-0.03479	0.008392	-0.087585	0.016479	-0.10681	-1.465	0.29953	0.045166	-0.28259	0.08316	0.052643	0.051117	1.1397	-0.029907	0.21225	-0.024261	-0.66452	0.14969	-0.001984	-0.012817
38.728	-0.002899	-0.007172	-0.11948	-0.011139	0.005951	0.009155	0.10086	0.026398	0.070648	0.040894	-0.043182	0.005341	-0.006409	0.010223	-0.030975	0.010376	-0.068665	-1.4432	0.51621	-0.010834	-0.07019	-0.07309	0.018005	0.11169	1.0271	-0.057068	0.14786	-0.02594	0.69076	0.37598	-0.008087	-0.023804
38.729	-0.003204	0.074921	-0.093384	-0.025177	-0.001678	0.004272	0.22644	0.032043	0.079651	0.018616	-0.22919	-0.012207	0.080109	0.074921	-0.015564	0.00473	-0.011902	-1.3153	-0.25375	0.005951	0.14801	-0.57022	0.022278	-0.005646	0.56625	-0.043335	-0.11704	-0.029449	2.7284	0.41336	-0.006561	-0.021515
38.73	-0.007935	0.11398	-0.095825	-0.03006	0.000916	-0.015106	0.23148	0.023193	0.088959	0.030365	-0.17456	-0.002747	0.068207	0.14587	0.81665	0.001373	-0.023499	-1.1473	-0.46143	-0.033875	0.070648	-0.40176	0.23178	0.14099	-0.24841	-0.010529	-0.17807	-0.023041	1.414	0.29037	-0.005035	-0.023499
38.731	-0.012054	0.14297	-0.11276	0.001068	0.003967	-0.019379	0.24826	0.016022	0.084534	0.081635	-0.042114	0.003052	-0.009155	0.15076	0.57342	-0.007629	-0.05188	-1.0101	0.062103	0.028076	0.0177	-0.15625	0.49545	0.041199	-1.1858	-0.00412	0.056458	-0.034485	-0.4335	0.091248	-0.00473	-0.018463
38.732	-0.007324	0.22324	-0.22461	0.037537	0.006409	-0.000763	0.26367	0.011749	0.087585	0.096588	-0.025177	-0.003662	-0.10452	0.14114	0.48111	0.001984	-0.037537	-1.013	-0.17288	0.026855	-0.005341	-0.20844	0.44968	-0.075378	-1.6457	-0.003967	0.14008	0.058899	-1.7728	-0.07843	-0.001831	-0.025635
38.733	0.002441	0.27313	-0.26733	0.028076	-0.002136	0.005646	0.35065	0.014954	0.11704	0.069427	-0.098419	-0.00351	-0.073242	0.058136	0.32883	0.010223	-0.017242	-0.93842	-0.33341	0.055389	-0.068359	-0.392	0.17853	-0.057678	-1.339	0.045929	-0.016174	0.060577	-1.4409	-0.12634	-0.006104	-0.018921
38.734	-0.007782	0.35019	-0.23834	0.022278	0.002747	-0.013123	0.44632	0.019073	0.12085	0.043335	-0.24323	-0.005646	0.014954	-0.03006	0.36835	0.000153	0.003052	-0.84869	-0.58182	-0.010834	-0.23621	-0.41351	-0.29709	0.063782	-0.87463	0.029297	0.030518	-0.000305	-0.24185	-0.027008	-0.002441	-0.014954
38.735	-0.005951	0.40329	-0.24826	0.019226	0.005341	0.008087	0.504	0.016479	0.098572	0.055847	-0.22842	0.002441	0.030365	0.005798	-0.37643	-0.011902	0.003204	-0.76843	-0.61844	-0.016174	-0.3389	-0.24475	-0.37811	0.30167	-0.36163	0.015411	0.026703	-0.020599	1.0019	-0.014496	0.00061	-0.015259
38.736	-0.003815	0.46783	-0.25543	0.005798	0.003204	0.022278	0.47012	0.019531	0.085754	0.096588	-0.14603	-0.007324	0.003662	0.024414	0.11002	-0.004272	0.009003	-0.51132	0.13168	-0.11597	-0.099792	-0.18692	-0.27374	0.51636	-0.015106	0.032196	0.015564	0.027771	-0.26855	0.050659	-0.002289	-0.01709
38.737	-0.002289	0.47455	-0.25909	-0.009155	0.000305	0.009003	0.46051	0.020294	0.0737	0.088501	-0.00946	-0.011902	-0.014496	-0.007172	-0.7605	0.005188	0.009155	-0.25879	0.44464	-0.12116	0.21805	-0.29465	-0.016785	0.3569	0.06546	0.02243	0.028687	-0.023041	-0.02243	0.19684	-0.007782	-0.010681
38.738	0.00351	0.55954	-0.25971	0.003052	0.004272	-0.004883	0.4039	0.022278	0.075684	0.089722	0.082855	-0.010834	0.011444	-0.069733	-0.5719	0.00946	0.01358	-0.103	0.60318	-0.056	0.215	-0.47607	0.09491	0.23834	0.029602	-0.005188	0.046692	-0.033264	0.25162	0.1001	-0.002289	-0.015106
38.739	-0.001221	0.63019	-0.26062	-0.002441	0.002441	0.002441	0.34515	0.023499	0.063629	0.074463	0.24918	-0.006866	-0.035248	-0.043488	-0.14572	0.009918	-0.002747	-0.006866	0.18875	-0.057068	0.084839	-0.43396	0.11246	0.14633	0.037079	0.001373	0.056	0.066071	-0.27542	0.006866	-0.001373	-0.018311
38.74	0.005493	0.70175	-0.28717	-0.010071	0.004883	-0.025635	0.30899	-0.017395	0.072632	0.056915	0.24719	-0.009918	-0.09079	0.10834	0.23193	0.005493	-0.0177	0.15533	0.52917	-0.080566	0.030975	-0.39322	0.16495	0.00885	-0.008545	-0.087433	-0.018005	0.015106	-0.10895	-0.005951	-0.007324	-0.012665
38.741	-0.001373	0.73837	-0.28137	-0.012207	0.002289	-0.015869	0.31998	0.021515	0.078278	0.071411	-0.11444	-0.005951	-0.045319	0.11368	0.60699	0.021057	0.017395	0.27344	0.68863	-0.13382	0.028076	-0.39429	0.16937	-0.19486	-0.010681	-0.10849	-0.10071	-0.022278	0.095673	0.040894	0.006714	-0.009918
38.742	0.001068	0.79834	-0.27649	-0.006866	-0.000305	0.000916	0.37308	0.022736	0.069275	0.078735	-0.091705	-0.007019	-0.012512	0.006104	0.83389	0.012207	0.016174	0.40619	-0.44479	0.006409	-0.040131	-0.34622	-0.00412	-0.2327	-0.051422	-0.075989	0.008392	-0.022583	0.15442	0.089264	-0.005493	-0.006866
